<svg width="21" height="20" viewBox="0 0 21 20" fill="none" xmlns="http://www.w3.org/2000/svg">
<g clip-path="url(#clip0_173_1887)">
<path d="M13 15.8333C13.0001 16.2538 12.8413 16.6588 12.5554 16.9671C12.2695 17.2754 11.8776 17.4643 11.4583 17.4958L11.3333 17.5H9.66666C9.24618 17.5001 8.84119 17.3413 8.53287 17.0554C8.22455 16.7695 8.0357 16.3776 8.00416 15.9583L8 15.8333H13ZM10.5 1.66667C12.0125 1.66664 13.4658 2.25408 14.5535 3.30506C15.6412 4.35605 16.2781 5.78841 16.33 7.3L16.3333 7.5V10.6367L17.8517 13.6733C17.9179 13.8058 17.9511 13.9524 17.9483 14.1005C17.9455 14.2487 17.9069 14.3939 17.8357 14.5238C17.7645 14.6537 17.6629 14.7645 17.5396 14.8465C17.4162 14.9286 17.2748 14.9795 17.1275 14.995L17.0317 15H3.96833C3.82013 15 3.67413 14.9642 3.54285 14.8954C3.41156 14.8267 3.29889 14.7271 3.21451 14.6053C3.13013 14.4835 3.07654 14.343 3.05833 14.1959C3.04013 14.0489 3.05786 13.8996 3.11 13.7608L3.14833 13.6733L4.66666 10.6367V7.5C4.66666 5.95291 5.28124 4.46917 6.37521 3.37521C7.46917 2.28125 8.9529 1.66667 10.5 1.66667Z" fill="#D91E2A"/>
</g>
<defs>
<clipPath id="clip0_173_1887">
<rect width="20" height="20" fill="white" transform="translate(0.5)"/>
</clipPath>
</defs>
</svg>
