<svg width="21" height="20" viewBox="0 0 21 20" fill="none" xmlns="http://www.w3.org/2000/svg">
<g clip-path="url(#clip0_173_1811)">
<path d="M10.5 10.8333C12.4967 10.8333 14.3125 11.4117 15.6483 12.2258C16.315 12.6342 16.885 13.1133 17.2967 13.6342C17.7017 14.1475 18 14.7608 18 15.4167C18 16.1208 17.6575 16.6758 17.1642 17.0717C16.6975 17.4467 16.0817 17.695 15.4275 17.8683C14.1125 18.2158 12.3575 18.3333 10.5 18.3333C8.6425 18.3333 6.8875 18.2167 5.5725 17.8683C4.91833 17.695 4.3025 17.4467 3.83583 17.0717C3.34167 16.675 3 16.1208 3 15.4167C3 14.7608 3.29833 14.1475 3.70333 13.6342C4.115 13.1133 4.68417 12.6342 5.35167 12.2258C6.6875 11.4117 8.50417 10.8333 10.5 10.8333ZM10.5 1.66666C11.6051 1.66666 12.6649 2.10565 13.4463 2.88705C14.2277 3.66845 14.6667 4.72826 14.6667 5.83333C14.6667 6.9384 14.2277 7.99821 13.4463 8.77961C12.6649 9.56101 11.6051 10 10.5 10C9.39493 10 8.33512 9.56101 7.55372 8.77961C6.77232 7.99821 6.33333 6.9384 6.33333 5.83333C6.33333 4.72826 6.77232 3.66845 7.55372 2.88705C8.33512 2.10565 9.39493 1.66666 10.5 1.66666Z" fill="#D91E2A"/>
</g>
<defs>
<clipPath id="clip0_173_1811">
<rect width="20" height="20" fill="white" transform="translate(0.5)"/>
</clipPath>
</defs>
</svg>
