<svg width="48" height="32" viewBox="0 0 48 32" fill="none" xmlns="http://www.w3.org/2000/svg">
<path d="M31.9988 32C31.9988 27.5818 35.5805 24 39.9987 24C39.9987 28.4182 36.417 32 31.9988 32Z" fill="#FCC966"/>
<path d="M47.9988 32C47.9988 27.5818 44.4171 24 39.9989 24C39.9989 28.4182 43.5806 32 47.9988 32Z" fill="#FF9398"/>
<path fill-rule="evenodd" clip-rule="evenodd" d="M40.0152 8.00002L39.9826 8.00002C39.9881 8.00001 39.9935 8 39.9989 8C40.0043 8 40.0098 8.00001 40.0152 8.00002ZM31.9991 16L35.9987 16C35.9987 18.2091 37.7895 20 39.9986 20C42.2077 20 43.9986 18.2091 43.9986 16L47.9988 16C47.9988 20.4182 44.4171 24 39.9989 24C35.5807 24 31.9991 20.4182 31.9991 16Z" fill="#D91E2A"/>
<rect x="16.0001" width="15.9997" height="16" rx="7.99986" fill="#FCC966"/>
<rect x="19.9999" y="4" width="7.99986" height="8" rx="3.99993" fill="white"/>
<path d="M36 16C38.2091 16 39.9999 14.2091 39.9999 12C37.7908 12 36 13.7909 36 16Z" fill="#FCC966"/>
<path d="M43.9999 8C41.7908 8 39.9999 9.7909 39.9999 12C42.209 12 43.9999 10.2091 43.9999 8Z" fill="#FCC966"/>
<path d="M35.9993 8C33.7902 8 31.9993 9.7909 31.9993 12C34.2084 12 35.9993 10.2091 35.9993 8Z" fill="#FCC966"/>
<path d="M36 8C38.2091 8 39.9999 6.2091 39.9999 4C37.7908 4 36 5.7909 36 8Z" fill="#D91E2A"/>
<path d="M36 8C38.2091 8 39.9999 9.7909 39.9999 12C37.7908 12 36 10.2091 36 8Z" fill="#D91E2A"/>
<path d="M39.9987 4C42.2078 4 43.9987 5.7909 43.9987 8C41.7896 8 39.9987 6.2091 39.9987 4Z" fill="#FCC966"/>
<path d="M35.9993 8C33.7902 8 31.9993 6.2091 31.9993 4C34.2084 4 35.9993 5.7909 35.9993 8Z" fill="#FF9398"/>
<path d="M43.9999 16C41.7908 16 39.9999 14.2091 39.9999 12C42.209 12 43.9999 13.7909 43.9999 16Z" fill="#FF9398"/>
<path d="M35.9993 16C33.7902 16 31.9993 14.2091 31.9993 12C34.2084 12 35.9993 13.7909 35.9993 16Z" fill="#FF9398"/>
<path fill-rule="evenodd" clip-rule="evenodd" d="M32.0001 4V8.10623e-06H39.9999V4C39.9996 4 39.9992 4 39.9988 4C37.8018 4 36.0184 2.22856 35.9991 0.0360675C35.9797 2.2283 34.1968 3.99957 32.0001 4Z" fill="#D91E2A"/>
<path fill-rule="evenodd" clip-rule="evenodd" d="M47.9996 12L47.9996 8L43.9987 8C43.9987 8 43.9987 8 43.9987 8C43.9987 10.2091 45.7895 12 47.9986 12C47.9989 12 47.9993 12 47.9996 12ZM43.9987 16L47.9996 16L47.9996 12C47.9993 12 47.9989 12 47.9986 12C45.7895 12 43.9987 13.7909 43.9987 16Z" fill="#FCC966"/>
<path d="M43.9988 8C46.2079 8 47.9988 6.20917 47.9988 4.00007L47.9988 0L43.9989 -4.76987e-08C41.7898 -7.40429e-08 39.9989 1.7909 39.9989 4.00003C39.9989 6.20914 41.7897 8 43.9988 8Z" fill="#D91E2A"/>
<path d="M47.9986 9.00411e-08C45.7895 4.03128e-08 43.9987 1.7909 43.9987 4C46.2078 4 47.9986 2.2091 47.9986 9.00411e-08Z" fill="#FCC966"/>
<path fill-rule="evenodd" clip-rule="evenodd" d="M16.0006 32H24V24C19.582 24.0002 16.0006 27.5819 16.0006 32ZM16.0006 16L24 16V24C19.582 23.9998 16.0006 20.4181 16.0006 16Z" fill="#FCC966"/>
<path d="M0 0C0 4.4182 3.58166 8 7.99986 8C7.99986 3.5818 4.4182 0 0 0Z" fill="#D91E2A"/>
<path d="M0 16C0 11.5818 3.58166 8 7.99986 8C7.99986 12.4182 4.4182 16 0 16Z" fill="#D91E2A"/>
<path d="M15.9996 0C15.9996 4.4182 12.418 8 7.99977 8C7.99977 3.5818 11.5814 0 15.9996 0Z" fill="#D91E2A"/>
<path d="M15.9996 16C15.9996 11.5818 12.418 8 7.99977 8C7.99977 12.4182 11.5814 16 15.9996 16Z" fill="#D91E2A"/>
<path d="M31.5 16C27.3579 16 24 19.3579 24 23.5C28.1421 23.5 31.5 20.1421 31.5 16Z" fill="#E64C56"/>
<path d="M31.5 31C27.3579 31 24 27.6421 24 23.5C28.1421 23.5 31.5 26.8579 31.5 31Z" fill="#E64C56"/>
</svg>
