<svg width="24" height="24" viewBox="0 0 24 24" fill="none" xmlns="http://www.w3.org/2000/svg">
<path d="M20.6897 20.8969H3.3104C1.94157 20.8969 0.827637 19.783 0.827637 18.4141V8.4831C0.827637 7.11427 1.94157 6.00034 3.3104 6.00034H6.02405L6.28557 5.21496C6.45006 4.72046 6.76614 4.29034 7.18893 3.98566C7.61172 3.68097 8.11974 3.51719 8.64088 3.51758H15.3584C16.4285 3.51758 17.3752 4.19951 17.7137 5.21496L17.9752 6.00034H20.6897C22.0585 6.00034 23.1725 7.11427 23.1725 8.4831V18.4141C23.1725 19.783 22.0585 20.8969 20.6897 20.8969ZM3.3104 7.65551C3.09091 7.65551 2.88041 7.7427 2.7252 7.8979C2.57 8.05311 2.48281 8.26361 2.48281 8.4831V18.4141C2.48281 18.6336 2.57 18.8441 2.7252 18.9993C2.88041 19.1545 3.09091 19.2417 3.3104 19.2417H20.6897C20.9092 19.2417 21.1197 19.1545 21.2749 18.9993C21.4301 18.8441 21.5173 18.6336 21.5173 18.4141V8.4831C21.5173 8.26361 21.4301 8.05311 21.2749 7.8979C21.1197 7.7427 20.9092 7.65551 20.6897 7.65551H17.9761C17.2627 7.65551 16.6312 7.20034 16.4061 6.52337L16.1454 5.73882C16.0904 5.57403 15.985 5.4307 15.844 5.32912C15.7031 5.22754 15.5338 5.17283 15.3601 5.17275H8.64253C8.46871 5.17246 8.29922 5.22701 8.15821 5.32865C8.0172 5.43029 7.91184 5.57382 7.85715 5.73882L7.59398 6.5242C7.4845 6.8539 7.27386 7.1407 6.99201 7.3438C6.71017 7.54691 6.37146 7.65598 6.02405 7.65551H3.3104Z" fill="black"/>
<path d="M12 18.414C9.49073 18.414 7.44824 16.3715 7.44824 13.8623C7.44824 11.353 9.49073 9.31055 12 9.31055C14.5092 9.31055 16.5517 11.353 16.5517 13.8623C16.5517 16.3715 14.5092 18.414 12 18.414ZM12 10.9657C10.4027 10.9657 9.10341 12.265 9.10341 13.8623C9.10341 15.4595 10.4027 16.7588 12 16.7588C13.5972 16.7588 14.8965 15.4595 14.8965 13.8623C14.8965 12.265 13.5972 10.9657 12 10.9657Z" fill="black"/>
<path d="M16.9655 10.1376C17.4226 10.1376 17.7931 9.76707 17.7931 9.31001C17.7931 8.85294 17.4226 8.48242 16.9655 8.48242C16.5085 8.48242 16.1379 8.85294 16.1379 9.31001C16.1379 9.76707 16.5085 10.1376 16.9655 10.1376Z" fill="black"/>
<path d="M4.55178 3.93164H3.3104C3.20065 3.93164 3.0954 3.97524 3.0178 4.05284C2.9402 4.13044 2.89661 4.23569 2.89661 4.34543C2.89661 4.45518 2.9402 4.56043 3.0178 4.63803C3.0954 4.71563 3.20065 4.75923 3.3104 4.75923H4.55178C4.66152 4.75923 4.76677 4.71563 4.84437 4.63803C4.92198 4.56043 4.96557 4.45518 4.96557 4.34543C4.96557 4.23569 4.92198 4.13044 4.84437 4.05284C4.76677 3.97524 4.66152 3.93164 4.55178 3.93164Z" fill="black"/>
<path d="M4.55175 5.17275H3.31037C3.09088 5.17275 2.88038 5.08556 2.72518 4.93036C2.56998 4.77515 2.48279 4.56465 2.48279 4.34516C2.48279 4.12567 2.56998 3.91518 2.72518 3.75997C2.88038 3.60477 3.09088 3.51758 3.31037 3.51758H4.55175C4.77124 3.51758 4.98174 3.60477 5.13695 3.75997C5.29215 3.91518 5.37934 4.12567 5.37934 4.34516C5.37934 4.56465 5.29215 4.77515 5.13695 4.93036C4.98174 5.08556 4.77124 5.17275 4.55175 5.17275Z" fill="black"/>
</svg>
