<svg width="50" height="50" viewBox="0 0 50 50" fill="none" xmlns="http://www.w3.org/2000/svg">
<circle cx="25" cy="25" r="25" fill="#F9F9F9"/>
<g clip-path="url(#clip0_448_3187)">
<path d="M25 26.6663C28.9933 26.6663 32.625 27.823 35.2967 29.4513C36.63 30.268 37.77 31.2263 38.5933 32.268C39.4033 33.2947 40 34.5213 40 35.833C40 37.2413 39.315 38.3513 38.3283 39.143C37.395 39.893 36.1633 40.3897 34.855 40.7363C32.225 41.4313 28.715 41.6663 25 41.6663C21.285 41.6663 17.775 41.433 15.145 40.7363C13.8367 40.3897 12.605 39.893 11.6717 39.143C10.6833 38.3497 10 37.2413 10 35.833C10 34.5213 10.5967 33.2947 11.4067 32.268C12.23 31.2263 13.3683 30.268 14.7033 29.4513C17.375 27.823 21.0083 26.6663 25 26.6663ZM25 8.33301C27.2101 8.33301 29.3298 9.21098 30.8926 10.7738C32.4554 12.3366 33.3333 14.4562 33.3333 16.6663C33.3333 18.8765 32.4554 20.9961 30.8926 22.5589C29.3298 24.1217 27.2101 24.9997 25 24.9997C22.7899 24.9997 20.6702 24.1217 19.1074 22.5589C17.5446 20.9961 16.6667 18.8765 16.6667 16.6663C16.6667 14.4562 17.5446 12.3366 19.1074 10.7738C20.6702 9.21098 22.7899 8.33301 25 8.33301Z" fill="#999999"/>
</g>
<circle opacity="0.6" cx="25" cy="25" r="25" fill="#CCCCCC"/>
<path d="M25 28.2083C25.7292 28.2083 26.3491 27.9532 26.8597 27.443C27.3699 26.9324 27.625 26.3125 27.625 25.5833C27.625 24.8542 27.3699 24.2343 26.8597 23.7237C26.3491 23.2134 25.7292 22.9583 25 22.9583C24.2708 22.9583 23.6509 23.2134 23.1403 23.7237C22.6301 24.2343 22.375 24.8542 22.375 25.5833C22.375 26.3125 22.6301 26.9324 23.1403 27.443C23.6509 27.9532 24.2708 28.2083 25 28.2083ZM20.3333 30.25C20.0125 30.25 19.7379 30.1359 19.5097 29.9076C19.281 29.6789 19.1667 29.4042 19.1667 29.0833V22.0833C19.1667 21.7625 19.281 21.4879 19.5097 21.2597C19.7379 21.031 20.0125 20.9167 20.3333 20.9167H22.1708L22.9 20.1292C23.0069 20.0028 23.1357 19.9079 23.2862 19.8445C23.4371 19.7815 23.5951 19.75 23.7604 19.75H26.2396C26.4049 19.75 26.5629 19.7815 26.7138 19.8445C26.8643 19.9079 26.9931 20.0028 27.1 20.1292L27.8292 20.9167H29.6667C29.9875 20.9167 30.2622 21.031 30.4909 21.2597C30.7192 21.4879 30.8333 21.7625 30.8333 22.0833V29.0833C30.8333 29.4042 30.7192 29.6789 30.4909 29.9076C30.2622 30.1359 29.9875 30.25 29.6667 30.25H20.3333Z" fill="#E64C56"/>
<defs>
<clipPath id="clip0_448_3187">
<rect width="40" height="40" fill="white" transform="translate(5 5)"/>
</clipPath>
</defs>
</svg>
