<svg width="24" height="24" viewBox="0 0 24 24" fill="none" xmlns="http://www.w3.org/2000/svg">
<path d="M20.25 5.25V4.5C20.2483 3.9038 20.0107 3.3325 19.5891 2.91092C19.1675 2.48934 18.5962 2.25173 18 2.25H3C2.4038 2.25173 1.8325 2.48934 1.41092 2.91092C0.98934 3.3325 0.751731 3.9038 0.75 4.5V16.5C0.751731 17.0962 0.98934 17.6675 1.41092 18.0891C1.8325 18.5107 2.4038 18.7483 3 18.75H3.75" stroke="black" stroke-width="1.5" stroke-linejoin="round"/>
<path d="M21.0942 6H6.65578C5.46518 6 4.5 6.96518 4.5 8.15578V19.5942C4.5 20.7848 5.46518 21.75 6.65578 21.75H21.0942C22.2848 21.75 23.25 20.7848 23.25 19.5942V8.15578C23.25 6.96518 22.2848 6 21.0942 6Z" stroke="black" stroke-width="1.5" stroke-linejoin="round"/>
<path d="M17.4807 11.7273C18.2773 11.7273 18.923 11.0862 18.923 10.2953C18.923 9.50442 18.2773 8.86328 17.4807 8.86328C16.6841 8.86328 16.0383 9.50442 16.0383 10.2953C16.0383 11.0862 16.6841 11.7273 17.4807 11.7273Z" stroke="black" stroke-width="1.125" stroke-miterlimit="10"/>
<path d="M16.0383 17.4446L11.9531 13.395C11.692 13.137 11.3427 12.9877 10.9757 12.9772C10.6087 12.9666 10.2514 13.0957 9.97594 13.3383L4.5 18.1697M12.4327 21.7491L17.9916 16.2305C18.2474 15.9782 18.5875 15.8297 18.9464 15.8135C19.3054 15.7973 19.6575 15.9146 19.935 16.1429L23.25 18.8855" stroke="black" stroke-width="1.125" stroke-linecap="round" stroke-linejoin="round"/>
</svg>
