<svg width="80" height="80" viewBox="0 0 80 80" fill="none" xmlns="http://www.w3.org/2000/svg">
<path d="M16.6667 73.3327C14.8333 73.3327 13.2633 72.6805 11.9567 71.376C10.6522 70.0693 10 68.4993 10 66.666V19.9993C10 18.166 10.6522 16.5971 11.9567 15.2927C13.2633 13.986 14.8333 13.3327 16.6667 13.3327H20V9.99935C20 9.0549 20.3189 8.26268 20.9567 7.62268C21.5967 6.9849 22.3889 6.66602 23.3333 6.66602C24.2778 6.66602 25.07 6.9849 25.71 7.62268C26.3478 8.26268 26.6667 9.0549 26.6667 9.99935V13.3327H53.3333V9.99935C53.3333 9.0549 53.6533 8.26268 54.2933 7.62268C54.9311 6.9849 55.7222 6.66602 56.6667 6.66602C57.6111 6.66602 58.4022 6.9849 59.04 7.62268C59.68 8.26268 60 9.0549 60 9.99935V13.3327H63.3333C65.1667 13.3327 66.7367 13.986 68.0433 15.2927C69.3478 16.5971 70 18.166 70 19.9993V66.666C70 68.4993 69.3478 70.0693 68.0433 71.376C66.7367 72.6805 65.1667 73.3327 63.3333 73.3327H16.6667ZM16.6667 66.666H63.3333V33.3327H16.6667V66.666ZM38.5833 60.3327L35.8333 54.166L29.6667 51.416C29.0556 51.1382 28.75 50.666 28.75 49.9993C28.75 49.3327 29.0556 48.8605 29.6667 48.5827L35.8333 45.8327L38.5833 39.666C38.8611 39.0549 39.3333 38.7493 40 38.7493C40.6667 38.7493 41.1389 39.0549 41.4167 39.666L44.1667 45.8327L50.3333 48.5827C50.9444 48.8605 51.25 49.3327 51.25 49.9993C51.25 50.666 50.9444 51.1382 50.3333 51.416L44.1667 54.166L41.4167 60.3327C41.1389 60.9438 40.6667 61.2493 40 61.2493C39.3333 61.2493 38.8611 60.9438 38.5833 60.3327Z" fill="#F9F9F9"/>
</svg>
