<svg width="24" height="24" viewBox="0 0 24 24" fill="none" xmlns="http://www.w3.org/2000/svg">
<path d="M20.3438 17.1563H18.6961C18.5836 17.1563 18.4782 17.2055 18.4078 17.2922C18.2438 17.4914 18.068 17.6836 17.8828 17.8664C17.1256 18.6245 16.2286 19.2286 15.2414 19.6453C14.2188 20.0773 13.1196 20.2989 12.0094 20.2969C10.8868 20.2969 9.79925 20.0766 8.77738 19.6453C7.79026 19.2286 6.89325 18.6245 6.13597 17.8664C5.37733 17.111 4.77242 16.2155 4.35472 15.2297C3.92113 14.2078 3.70316 13.1227 3.70316 12C3.70316 10.8774 3.92347 9.79222 4.35472 8.77035C4.77191 7.78363 5.37191 6.89535 6.13597 6.13363C6.90003 5.37191 7.78831 4.77191 8.77738 4.35472C9.79925 3.92347 10.8868 3.70316 12.0094 3.70316C13.1321 3.70316 14.2196 3.92113 15.2414 4.35472C16.2305 4.77191 17.1188 5.37191 17.8828 6.13363C18.068 6.31879 18.2414 6.51097 18.4078 6.70785C18.4782 6.79457 18.586 6.84379 18.6961 6.84379H20.3438C20.4914 6.84379 20.5828 6.67972 20.5008 6.5555C18.7032 3.76175 15.5578 1.91254 11.9836 1.92191C6.368 1.93597 1.86566 6.49457 1.92191 12.1032C1.97816 17.6227 6.47347 22.0782 12.0094 22.0782C15.5743 22.0782 18.7055 20.2313 20.5008 17.4446C20.5805 17.3203 20.4914 17.1563 20.3438 17.1563ZM22.4274 11.8524L19.1016 9.22738C18.9774 9.12894 18.7969 9.218 18.7969 9.37504V11.1563H11.4375C11.3344 11.1563 11.25 11.2407 11.25 11.3438V12.6563C11.25 12.7594 11.3344 12.8438 11.4375 12.8438H18.7969V14.625C18.7969 14.7821 18.9797 14.8711 19.1016 14.7727L22.4274 12.1477C22.4498 12.1302 22.4679 12.1077 22.4804 12.0822C22.4928 12.0566 22.4993 12.0285 22.4993 12C22.4993 11.9716 22.4928 11.9435 22.4804 11.9179C22.4679 11.8923 22.4498 11.8699 22.4274 11.8524Z" fill="#D91E2A"/>
</svg>
