<svg width="21" height="20" viewBox="0 0 21 20" fill="none" xmlns="http://www.w3.org/2000/svg">
<g clip-path="url(#clip0_171_1668)">
<path d="M14.2061 3.66463C15.1995 4.62454 15.7817 5.93241 15.8301 7.31286L15.8333 7.50416V10.6367V10.7547L15.8861 10.8603L17.4045 13.8969L17.4045 13.897C17.4346 13.9572 17.4497 14.0238 17.4484 14.0912C17.4471 14.1585 17.4296 14.2245 17.3972 14.2836C17.3649 14.3426 17.3187 14.393 17.2626 14.4303C17.2095 14.4656 17.149 14.4882 17.0858 14.4965L17.0186 14.5H3.96833H3.96818C3.90082 14.5 3.83446 14.4837 3.77478 14.4525C3.7151 14.4212 3.66389 14.376 3.62554 14.3206C3.58718 14.2652 3.56282 14.2014 3.55455 14.1345C3.54671 14.0712 3.55352 14.007 3.57438 13.9469L3.60121 13.8856L5.11388 10.8603L5.16666 10.7547V10.6367V7.5C5.16666 6.08552 5.72857 4.72896 6.72876 3.72877C7.72895 2.72857 9.08551 2.16667 10.5 2.16667H10.5C11.8828 2.16665 13.2116 2.70373 14.2061 3.66463ZM9.66666 17H9.6665C9.37217 17.0001 9.08867 16.8889 8.87285 16.6888C8.76315 16.5871 8.67505 16.4662 8.61204 16.3333H12.3877C12.3372 16.44 12.2704 16.5392 12.1888 16.6271C11.9908 16.8406 11.7202 16.9723 11.4303 16.9965L11.325 17H9.66666ZM10.5 2.83334H10.5C9.2974 2.83341 8.14128 3.29771 7.27271 4.12942C6.40413 4.96113 5.89016 6.09604 5.83797 7.29747L5.83786 7.29747L5.83763 7.30765L5.83346 7.48849L5.83333 7.48848V7.5V10.6367V10.6367C5.83333 10.778 5.80768 10.9181 5.75763 11.0501L5.70488 11.1697L4.73524 13.1098L4.37363 13.8333H5.1825H15.8183H16.627L16.2656 13.1099L15.2906 11.1582L15.2904 11.1579C15.2272 11.0315 15.1874 10.8948 15.173 10.7543L15.1667 10.6245V7.5C15.1667 6.26233 14.675 5.07534 13.7998 4.20017C12.9247 3.325 11.7377 2.83334 10.5 2.83334Z" fill="#999999" stroke="#999999"/>
</g>
<defs>
<clipPath id="clip0_171_1668">
<rect width="20" height="20" fill="white" transform="translate(0.5)"/>
</clipPath>
</defs>
</svg>
