<svg width="21" height="20" viewBox="0 0 21 20" fill="none" xmlns="http://www.w3.org/2000/svg">
<g clip-path="url(#clip0_171_1737)">
<path fill-rule="evenodd" clip-rule="evenodd" d="M10.5 10.8333C12.4967 10.8333 14.3125 11.4117 15.6483 12.2258C16.315 12.6342 16.885 13.1133 17.2967 13.6342C17.7017 14.1475 18 14.7608 18 15.4167C18 16.1208 17.6575 16.6758 17.1642 17.0717C16.6975 17.4467 16.0817 17.695 15.4275 17.8683C14.1125 18.2158 12.3575 18.3333 10.5 18.3333C8.6425 18.3333 6.8875 18.2167 5.5725 17.8683C4.91833 17.695 4.3025 17.4467 3.83583 17.0717C3.34167 16.675 3 16.1208 3 15.4167C3 14.7608 3.29833 14.1475 3.70333 13.6342C4.115 13.1133 4.68417 12.6342 5.35167 12.2258C6.6875 11.4117 8.50417 10.8333 10.5 10.8333ZM10.5 12.5C8.81417 12.5 7.2975 12.9917 6.22 13.6492C5.68083 13.9775 5.27417 14.3342 5.01167 14.6675C4.74167 15.0092 4.66667 15.2675 4.66667 15.4167C4.66667 15.5183 4.6975 15.6258 4.87917 15.7717C5.08667 15.9383 5.4475 16.1108 5.99917 16.2567C7.0975 16.5483 8.67583 16.6667 10.5 16.6667C12.325 16.6667 13.9025 16.5475 15 16.2567C15.5525 16.1108 15.9133 15.9383 16.1208 15.7717C16.3025 15.6258 16.3333 15.5183 16.3333 15.4167C16.3333 15.2667 16.2583 15.0092 15.9892 14.6675C15.7258 14.3342 15.3192 13.9775 14.78 13.6492C13.7025 12.9908 12.1858 12.5 10.5 12.5ZM10.5 1.66667C11.6051 1.66667 12.6649 2.10566 13.4463 2.88706C14.2277 3.66846 14.6667 4.72827 14.6667 5.83334C14.6667 6.93841 14.2277 7.99822 13.4463 8.77962C12.6649 9.56102 11.6051 10 10.5 10C9.39493 10 8.33512 9.56102 7.55372 8.77962C6.77232 7.99822 6.33333 6.93841 6.33333 5.83334C6.33333 4.72827 6.77232 3.66846 7.55372 2.88706C8.33512 2.10566 9.39493 1.66667 10.5 1.66667ZM10.5 3.33334C10.1717 3.33334 9.84661 3.398 9.54329 3.52364C9.23998 3.64928 8.96438 3.83343 8.73223 4.06557C8.50009 4.29772 8.31594 4.57332 8.1903 4.87663C8.06466 5.17994 8 5.50503 8 5.83334C8 6.16164 8.06466 6.48673 8.1903 6.79005C8.31594 7.09336 8.50009 7.36896 8.73223 7.60111C8.96438 7.83325 9.23998 8.0174 9.54329 8.14304C9.84661 8.26867 10.1717 8.33334 10.5 8.33334C11.163 8.33334 11.7989 8.06995 12.2678 7.60111C12.7366 7.13227 13 6.49638 13 5.83334C13 5.1703 12.7366 4.53441 12.2678 4.06557C11.7989 3.59673 11.163 3.33334 10.5 3.33334Z" fill="#999999"/>
</g>
<defs>
<clipPath id="clip0_171_1737">
<rect width="20" height="20" fill="white" transform="translate(0.5)"/>
</clipPath>
</defs>
</svg>
