<svg width="20" height="20" viewBox="0 0 20 20" fill="none" xmlns="http://www.w3.org/2000/svg">
<g opacity="0.5">
<path d="M9.9925 2.5C5.8525 2.5 2.5 5.86 2.5 10C2.5 14.14 5.8525 17.5 9.9925 17.5C14.14 17.5 17.5 14.14 17.5 10C17.5 5.86 14.14 2.5 9.9925 2.5ZM10 16C6.685 16 4 13.315 4 10C4 6.685 6.685 4 10 4C13.315 4 16 6.685 16 10C16 13.315 13.315 16 10 16ZM9.835 6.25H9.79C9.49 6.25 9.25 6.49 9.25 6.79V10.33C9.25 10.5925 9.385 10.84 9.6175 10.975L12.73 12.8425C12.985 12.9925 13.315 12.9175 13.465 12.6625C13.5027 12.6018 13.5277 12.5341 13.5387 12.4635C13.5496 12.3929 13.5462 12.3208 13.5288 12.2515C13.5113 12.1822 13.48 12.1171 13.4368 12.0602C13.3937 12.0032 13.3395 11.9556 13.2775 11.92L10.375 10.195V6.79C10.375 6.49 10.135 6.25 9.835 6.25Z" fill="#D91E2A"/>
</g>
</svg>
