<svg width="20" height="20" viewBox="0 0 20 20" fill="none" xmlns="http://www.w3.org/2000/svg">
<g opacity="0.5">
<path fill-rule="evenodd" clip-rule="evenodd" d="M14.5832 16.6665C15.1357 16.6665 15.6656 16.447 16.0563 16.0563C16.447 15.6656 16.6665 15.1357 16.6665 14.5832C16.6665 14.0306 16.447 13.5007 16.0563 13.11C15.6656 12.7193 15.1357 12.4998 14.5832 12.4998C14.0306 12.4998 13.5007 12.7193 13.11 13.11C12.7193 13.5007 12.4998 14.0306 12.4998 14.5832C12.4998 15.1357 12.7193 15.6656 13.11 16.0563C13.5007 16.447 14.0306 16.6665 14.5832 16.6665ZM14.5832 17.4998C15.3567 17.4998 16.0986 17.1925 16.6456 16.6456C17.1925 16.0986 17.4998 15.3567 17.4998 14.5832C17.4998 13.8096 17.1925 13.0678 16.6456 12.5208C16.0986 11.9738 15.3567 11.6665 14.5832 11.6665C13.8096 11.6665 13.0678 11.9738 12.5208 12.5208C11.9738 13.0678 11.6665 13.8096 11.6665 14.5832C11.6665 15.3567 11.9738 16.0986 12.5208 16.6456C13.0678 17.1925 13.8096 17.4998 14.5832 17.4998Z" fill="#D91E2A"/>
<path fill-rule="evenodd" clip-rule="evenodd" d="M14.5832 13.125C14.6937 13.125 14.7997 13.1689 14.8778 13.247C14.9559 13.3252 14.9998 13.4312 14.9998 13.5417V14.4108L15.2944 14.7054C15.3703 14.784 15.4123 14.8893 15.4114 14.9985C15.4104 15.1077 15.3666 15.2123 15.2893 15.2895C15.2121 15.3668 15.1076 15.4106 14.9983 15.4115C14.8891 15.4125 14.7838 15.3705 14.7053 15.2946L14.1665 14.7558V13.5417C14.1665 13.4312 14.2104 13.3252 14.2885 13.247C14.3667 13.1689 14.4727 13.125 14.5832 13.125ZM5.83317 9.58333H4.99984V10.4167H5.83317V9.58333ZM4.99984 8.75C4.77882 8.75 4.56686 8.8378 4.41058 8.99408C4.2543 9.15036 4.1665 9.36232 4.1665 9.58333V10.4167C4.1665 10.6377 4.2543 10.8496 4.41058 11.0059C4.56686 11.1622 4.77882 11.25 4.99984 11.25H5.83317C6.05418 11.25 6.26615 11.1622 6.42243 11.0059C6.57871 10.8496 6.6665 10.6377 6.6665 10.4167V9.58333C6.6665 9.36232 6.57871 9.15036 6.42243 8.99408C6.26615 8.8378 6.05418 8.75 5.83317 8.75H4.99984ZM9.1665 9.58333H8.33317V10.4167H9.1665V9.58333ZM8.33317 8.75C8.11216 8.75 7.9002 8.8378 7.74392 8.99408C7.58764 9.15036 7.49984 9.36232 7.49984 9.58333V10.4167C7.49984 10.6377 7.58764 10.8496 7.74392 11.0059C7.9002 11.1622 8.11216 11.25 8.33317 11.25H9.1665C9.38752 11.25 9.59948 11.1622 9.75576 11.0059C9.91204 10.8496 9.99984 10.6377 9.99984 10.4167V9.58333C9.99984 9.36232 9.91204 9.15036 9.75576 8.99408C9.59948 8.8378 9.38752 8.75 9.1665 8.75H8.33317ZM12.4998 9.58333H11.6665V10.4167H12.4998V9.58333ZM11.6665 8.75C11.4455 8.75 11.2335 8.8378 11.0772 8.99408C10.921 9.15036 10.8332 9.36232 10.8332 9.58333V10.4167C10.8332 10.6377 10.921 10.8496 11.0772 11.0059C11.2335 11.1622 11.4455 11.25 11.6665 11.25H12.4998C12.7209 11.25 12.9328 11.1622 13.0891 11.0059C13.2454 10.8496 13.3332 10.6377 13.3332 10.4167V9.58333C13.3332 9.36232 13.2454 9.15036 13.0891 8.99408C12.9328 8.8378 12.7209 8.75 12.4998 8.75H11.6665ZM5.83317 12.9167H4.99984V13.75H5.83317V12.9167ZM4.99984 12.0833C4.77882 12.0833 4.56686 12.1711 4.41058 12.3274C4.2543 12.4837 4.1665 12.6957 4.1665 12.9167V13.75C4.1665 13.971 4.2543 14.183 4.41058 14.3393C4.56686 14.4955 4.77882 14.5833 4.99984 14.5833H5.83317C6.05418 14.5833 6.26615 14.4955 6.42243 14.3393C6.57871 14.183 6.6665 13.971 6.6665 13.75V12.9167C6.6665 12.6957 6.57871 12.4837 6.42243 12.3274C6.26615 12.1711 6.05418 12.0833 5.83317 12.0833H4.99984ZM9.1665 12.9167H8.33317V13.75H9.1665V12.9167ZM8.33317 12.0833C8.11216 12.0833 7.9002 12.1711 7.74392 12.3274C7.58764 12.4837 7.49984 12.6957 7.49984 12.9167V13.75C7.49984 13.971 7.58764 14.183 7.74392 14.3393C7.9002 14.4955 8.11216 14.5833 8.33317 14.5833H9.1665C9.38752 14.5833 9.59948 14.4955 9.75576 14.3393C9.91204 14.183 9.99984 13.971 9.99984 13.75V12.9167C9.99984 12.6957 9.91204 12.4837 9.75576 12.3274C9.59948 12.1711 9.38752 12.0833 9.1665 12.0833H8.33317Z" fill="#D91E2A"/>
<path fill-rule="evenodd" clip-rule="evenodd" d="M3.33333 5C3.33333 4.88949 3.37723 4.78351 3.45537 4.70537C3.53351 4.62723 3.63949 4.58333 3.75 4.58333H5.83333V3.75H3.75C3.41848 3.75 3.10054 3.8817 2.86612 4.11612C2.6317 4.35054 2.5 4.66848 2.5 5V15C2.5 15.3315 2.6317 15.6495 2.86612 15.8839C3.10054 16.1183 3.41848 16.25 3.75 16.25H12.1896C12.0119 15.9955 11.8761 15.7141 11.7875 15.4167H3.75C3.63949 15.4167 3.53351 15.3728 3.45537 15.2946C3.37723 15.2165 3.33333 15.1105 3.33333 15V5ZM14.1667 11.6958C14.443 11.6563 14.7236 11.6563 15 11.6958V5C15 4.66848 14.8683 4.35054 14.6339 4.11612C14.3995 3.8817 14.0815 3.75 13.75 3.75H12.5V4.58333H13.75C13.8605 4.58333 13.9665 4.62723 14.0446 4.70537C14.1228 4.78351 14.1667 4.88949 14.1667 5V11.6958ZM6.66667 4.58333H11.0679V3.75H6.66667V4.58333Z" fill="#D91E2A"/>
<path fill-rule="evenodd" clip-rule="evenodd" d="M15.0002 7.49984H3.3335V6.6665H15.0002V7.49984Z" fill="#D91E2A"/>
<path d="M5 2.91667C5 2.80616 5.0439 2.70018 5.12204 2.62204C5.20018 2.5439 5.30616 2.5 5.41667 2.5C5.52717 2.5 5.63315 2.5439 5.71129 2.62204C5.78943 2.70018 5.83333 2.80616 5.83333 2.91667V5C5.83333 5.11051 5.78943 5.21649 5.71129 5.29463C5.63315 5.37277 5.52717 5.41667 5.41667 5.41667C5.30616 5.41667 5.20018 5.37277 5.12204 5.29463C5.0439 5.21649 5 5.11051 5 5V2.91667ZM10.8333 2.91667C10.8333 2.80616 10.8772 2.70018 10.9554 2.62204C11.0335 2.5439 11.1395 2.5 11.25 2.5C11.3605 2.5 11.4665 2.5439 11.5446 2.62204C11.6228 2.70018 11.6667 2.80616 11.6667 2.91667V5C11.6667 5.11051 11.6228 5.21649 11.5446 5.29463C11.4665 5.37277 11.3605 5.41667 11.25 5.41667C11.1395 5.41667 11.0335 5.37277 10.9554 5.29463C10.8772 5.21649 10.8333 5.11051 10.8333 5V2.91667Z" fill="#D91E2A"/>
</g>
</svg>
